15_ID_stride2.mot
nRows=11
nColumns=38

name 15_ID_stride2.mot
datacolumns 38
datarows 11
range 0.7550000000 0.8050000000
endheader
time	pelvis_tilt_moment	pelvis_list_moment	pelvis_rotation_moment	pelvis_tx_force	pelvis_ty_force	pelvis_tz_force	hip_flexion_r_moment	hip_adduction_r_moment	hip_rotation_r_moment	knee_angle_r_moment	ankle_angle_r_moment	subtalar_angle_r_moment	mtp_angle_r_moment	hip_flexion_l_moment	hip_adduction_l_moment	hip_rotation_l_moment	knee_angle_l_moment	ankle_angle_l_moment	subtalar_angle_l_moment	mtp_angle_l_moment	lumbar_extension_moment	lumbar_bending_moment	lumbar_rotation_moment	arm_flex_r_moment	arm_add_r_moment	arm_rot_r_moment	elbow_flex_r_moment	pro_sup_r_moment	wrist_flex_r_moment	wrist_dev_r_moment	arm_flex_l_moment	arm_add_l_moment	arm_rot_l_moment	elbow_flex_l_moment	pro_sup_l_moment	wrist_flex_l_moment	wrist_dev_l_moment
        0.7550000000	        4.8142773710	     -103.9819911279	       -5.2761946767	       42.8224256818	      190.3443777948	       87.7274411523	     -115.9818556743	       -7.3508493077	       -0.2271024376	      -60.1475870156	        2.4659460561	       -0.0415251343	        0.1738971672	       57.1286891416	      -16.9359328828	        5.7505312998	       18.9216679010	        4.8995400965	       -0.9102500834	        0.3029363074	      -22.8964826463	      -18.3641454115	       10.8731299953	        0.8904099915	        0.3544402813	        0.7480572770	        0.2775612284	        0.0343056496	        0.1018280562	        0.0286600808	       -2.5414451764	        0.0801752539	       -0.3235937801	       -0.5477849764	       -0.0230375186	       -0.0736355295	        0.0449270374	
        0.7600000000	        6.3167911784	      -71.1919600028	       -3.5872366964	        9.2532700034	      309.3391934354	      112.0519960107	      -79.7894643384	       -3.5200780531	        0.4190299147	      -36.8045712871	        8.4699190565	        2.9889988129	        0.2270213670	       50.5078664593	      -15.4705968582	        6.5935533487	       19.1723182541	        4.9699031120	       -0.9918624224	        0.3124632427	       -8.0639473212	      -21.5455550351	        9.7658625537	       -0.3954624993	        0.4547046458	        0.8700105475	        0.6349501681	        0.0282946318	        0.1189495372	        0.0050360870	       -3.6239630123	        0.1562777786	       -0.0917835138	       -0.1270928117	       -0.0235893801	       -0.0387329883	        0.0207081359	
        0.7650000000	       20.2227096118	       -4.9692538992	       -3.1360210650	      -14.1084290549	      358.2403126800	      110.9833002979	      -32.7216335335	      -10.7962618067	        2.9907468202	       -8.1811839170	        9.6150563883	        6.5791662441	        0.2711195456	       48.1926382917	      -13.9865383434	        7.2380936556	       20.1735078989	        5.0862478988	       -1.0779549902	        0.3209934793	       10.2550377764	      -24.7604000395	        9.3485171910	       -1.5313017288	        0.7305939178	        1.1023415583	        1.0537823238	        0.0240018547	        0.1484475555	       -0.0256376138	       -4.6358581727	        0.1508885934	        0.0083553762	        0.3780942098	       -0.0282956291	       -0.0135452663	       -0.0168331989	
        0.7700000000	       43.7503956690	       61.8008122057	       -3.1788384081	      -24.2914413152	      360.7570513149	       65.3344294824	        4.0201651305	      -32.7079839128	        9.6364939462	       13.4646454682	       -1.5190344952	       10.9152764661	        0.3018156517	       50.8186022939	      -12.2620034144	        7.4664033748	       21.6883135635	        5.2399513099	       -1.1434893456	        0.3283349041	       29.2776075939	      -27.2101789741	        9.8892662405	       -2.2602519053	        1.1537359283	        1.4215453774	        1.5316324549	        0.0213883043	        0.1886116012	       -0.0634536316	       -5.3808543235	       -0.0268189400	       -0.0206442320	        0.9471311533	       -0.0382069146	       -0.0018336044	       -0.0672506457	
        0.7750000000	       69.4421572547	      113.6025981812	        0.8851290969	      -15.8285437763	      300.8038617202	        5.6404967595	       12.6753540754	      -59.4399760250	       22.2732828054	       24.7490428073	      -21.1884730271	       18.2207973569	        0.3100519002	       57.0734204299	      -10.1234152905	        6.8984973015	       23.2593460613	        5.3833451527	       -1.1494340041	        0.3322880483	       46.1236923594	      -27.5195546650	       11.4609997189	       -2.3907401060	        1.6358965425	        1.7745784812	        2.0305648704	        0.0201388046	        0.2338836181	       -0.1045864023	       -5.7831544362	       -0.2540847504	       -0.1837796216	        1.5269660644	       -0.0518989957	       -0.0058666711	       -0.1242869096	
        0.7800000000	       87.2862323096	      124.5095449067	        8.9701243790	        1.8304567879	      200.5143005496	      -27.9419690850	        6.0991537469	      -83.9340503413	       38.5613498314	       25.4645344378	      -47.1431404842	       27.6407610049	        0.3070224111	       63.9378604454	       -7.7097154647	        5.7473219926	       24.0275241241	        5.4169405450	       -1.1347810366	        0.3322107796	       58.8377555451	      -27.0290914402	       13.6713186333	       -2.3409343739	        2.0700289377	        2.1026099540	        2.4973448681	        0.0192832285	        0.2774025417	       -0.1431443239	       -5.8826535253	       -0.4436536797	       -0.4058391740	        2.0585042357	       -0.0666556472	       -0.0148728396	       -0.1789052685	
        0.7850000000	       93.4597451093	      102.8381215985	       21.2292233371	       27.1728446843	       82.3230586233	      -34.5545232062	      -45.4616496199	      -97.8079208909	       55.1993863766	       13.7536833336	      -77.0622151014	       38.4895251620	        0.2757691879	       68.7487846981	       -5.1835752433	        3.9493021287	       24.1541994472	        5.3584344147	       -1.0342747005	        0.3248458768	       66.4357008549	      -23.5882558948	       16.1570644071	       -1.9121572030	        2.3993060736	        2.3706342815	        2.9005033632	        0.0184779171	        0.3147120445	       -0.1753945837	       -5.8801649067	       -0.5404351187	       -0.6154864298	        2.5084486701	       -0.0805184980	       -0.0292217313	       -0.2252733156	
        0.7900000000	       80.7039761351	       48.5487423478	       33.9364644977	       44.4094291274	      -27.0164705536	       -1.6068151792	     -109.7846377482	      -99.7128418792	       65.5833597837	        1.2463024648	     -105.1577610209	       48.2580206711	        0.2278384241	       70.5730548764	       -3.0336471114	        1.9909295065	       23.1996285442	        5.1439214721	       -0.8975273614	        0.3107493089	       69.3959772029	      -19.1479253667	       18.3883201327	       -1.4573076175	        2.6241710562	        2.5695336354	        3.2328079446	        0.0170187208	        0.3436550612	       -0.1998298159	       -5.7723015298	       -0.5586912513	       -0.7730519129	        2.8749876856	       -0.0921130591	       -0.0410400184	       -0.2607136610	
        0.7950000000	       50.2847850473	       -5.3478156267	       42.8667531651	       42.6812954803	     -111.3989258061	       40.8412836900	     -164.6311432986	      -86.3802653026	       63.7996733272	        1.6483435173	     -127.3058774531	       54.7417206128	        0.1701697484	       69.4175503082	       -1.7307645371	        0.2283065744	       21.7083281824	        4.8533852700	       -0.7490499973	        0.2929337898	       67.8088743384	      -14.9209686544	       20.0589010636	       -1.0234315759	        2.8296364182	        2.7257866718	        3.5328286748	        0.0144825398	        0.3660823596	       -0.2193278373	       -5.5948419445	       -0.5615475026	       -0.8901297950	        3.2045271175	       -0.1023031676	       -0.0493560533	       -0.2888263583	
        0.8000000000	       11.3722994748	      -36.5307775208	       42.6138514177	       24.3163670193	     -156.8459674836	       51.3403652705	     -186.6348574941	      -66.0111225398	       52.7312975553	       16.8587032265	     -141.4776357830	       55.6442802869	        0.1112307646	       67.2145652369	       -1.8479393561	       -1.0737747574	       20.1450105019	        4.5556121636	       -0.6153813782	        0.2750494377	       63.6791741658	      -12.7906301422	       21.0677607856	       -0.5405830078	        3.1516839635	        2.8945652506	        3.8874261290	        0.0105123499	        0.3878045744	       -0.2421808360	       -5.2495877052	       -0.6422025405	       -1.0245400028	        3.5900881386	       -0.1139695374	       -0.0562397139	       -0.3201571526	
        0.8050000000	      -23.5002070425	      -38.2051603528	       38.5023236137	      -11.4975535394	     -156.6432002691	       36.0447622076	     -182.7786689008	      -46.9139906918	       35.5794717188	       48.7820030031	     -149.5679177768	       54.7863861830	        0.0606045124	       66.1989421137	       -2.6463070829	       -1.8172438472	       18.8931096466	        4.3241663221	       -0.5155938284	        0.2612489260	       58.3698523511	      -13.3358179568	       21.4675008540	        0.1000398556	        3.6799066159	        3.1151258358	        4.3837309132	        0.0045765348	        0.4143203309	       -0.2766677286	       -4.6407940756	       -0.8711868551	       -1.2202218866	        4.1181072288	       -0.1297928906	       -0.0639169501	       -0.3646977709	
